<?xml version="1.0" encoding="UTF-8" standalone="no"?>
<!DOCTYPE svg PUBLIC "-//W3C//DTD SVG 1.1//EN" "http://www.w3.org/Graphics/SVG/1.1/DTD/svg11.dtd">
<svg width="100%" height="100%" viewBox="0 0 135 135" version="1.1" xmlns="http://www.w3.org/2000/svg" xmlns:xlink="http://www.w3.org/1999/xlink" xml:space="preserve" xmlns:serif="http://www.serif.com/" style="fill-rule:evenodd;clip-rule:evenodd;stroke-linejoin:round;stroke-miterlimit:2;">
    <g transform="matrix(1,0,0,1,-532.5,-207.946)">
        <path d="M600,207.946C637.279,207.946 667.5,238.166 667.5,275.446C667.5,312.725 637.279,342.946 600,342.946C562.721,342.946 532.5,312.725 532.5,275.446C532.5,238.166 562.721,207.946 600,207.946Z" style="fill:rgb(118,146,147);fill-rule:nonzero;"/>
        <path d="M600,232.946C588.457,232.946 587.01,232.995 582.477,233.202C577.954,233.408 574.864,234.126 572.161,235.177C569.366,236.263 566.996,237.716 564.633,240.079C562.27,242.442 560.817,244.812 559.731,247.607C558.681,250.31 557.962,253.399 557.756,257.923C557.549,262.457 557.5,263.903 557.5,275.446C557.5,286.988 557.549,288.436 557.756,292.969C557.962,297.492 558.681,300.582 559.731,303.285C560.817,306.08 562.27,308.45 564.633,310.812C566.996,313.175 569.366,314.628 572.161,315.715C574.864,316.765 577.954,317.484 582.477,317.69C587.01,317.897 588.457,317.946 600,317.946C611.542,317.946 612.989,317.897 617.522,317.69C622.046,317.484 625.136,316.765 627.839,315.715C630.634,314.628 633.004,313.175 635.367,310.812C637.729,308.45 639.183,306.08 640.269,303.285C641.319,300.582 642.038,297.492 642.244,292.969C642.451,288.436 642.5,286.988 642.5,275.446C642.5,263.904 642.451,262.457 642.244,257.923C642.038,253.399 641.319,250.31 640.269,247.607C639.183,244.812 637.729,242.442 635.367,240.079C633.004,237.716 630.634,236.263 627.839,235.177C625.136,234.126 622.046,233.408 617.522,233.202C612.989,232.995 611.542,232.946 600,232.946ZM600,240.604C611.348,240.604 612.692,240.647 617.174,240.851C621.317,241.041 623.567,241.733 625.065,242.315C627.049,243.086 628.465,244.007 629.952,245.494C631.439,246.981 632.36,248.397 633.131,250.38C633.713,251.878 634.405,254.128 634.595,258.272C634.799,262.754 634.842,264.098 634.842,275.446C634.842,286.794 634.799,288.138 634.595,292.62C634.405,296.763 633.713,299.014 633.131,300.511C632.36,302.495 631.439,303.911 629.952,305.398C628.465,306.885 627.049,307.806 625.065,308.577C623.567,309.159 621.317,309.852 617.174,310.04C612.692,310.245 611.349,310.288 600,310.288C588.651,310.288 587.307,310.245 582.826,310.04C578.683,309.852 576.432,309.159 574.935,308.577C572.951,307.806 571.535,306.885 570.048,305.398C568.561,303.911 567.64,302.495 566.869,300.511C566.287,299.014 565.595,296.763 565.405,292.62C565.201,288.138 565.158,286.794 565.158,275.446C565.158,264.098 565.201,262.754 565.405,258.272C565.595,254.128 566.287,251.878 566.869,250.38C567.64,248.397 568.56,246.981 570.048,245.494C571.535,244.007 572.951,243.086 574.935,242.315C576.432,241.733 578.683,241.041 582.826,240.851C587.308,240.647 588.652,240.604 600,240.604Z" style="fill:rgb(239,234,228);fill-rule:nonzero;"/>
        <path d="M600,289.613C592.176,289.613 585.833,283.27 585.833,275.446C585.833,267.622 592.176,261.279 600,261.279C607.824,261.279 614.167,267.622 614.167,275.446C614.167,283.27 607.824,289.613 600,289.613ZM600,253.622C587.947,253.622 578.176,263.393 578.176,275.446C578.176,287.499 587.947,297.27 600,297.27C612.053,297.27 621.824,287.499 621.824,275.446C621.824,263.393 612.053,253.622 600,253.622Z" style="fill:rgb(239,234,228);fill-rule:nonzero;"/>
        <path d="M627.786,252.759C627.786,255.576 625.503,257.859 622.687,257.859C619.87,257.859 617.587,255.576 617.587,252.759C617.587,249.942 619.87,247.659 622.687,247.659C625.503,247.659 627.786,249.942 627.786,252.759Z" style="fill:rgb(239,234,228);fill-rule:nonzero;"/>
    </g>
</svg>
