<?xml version="1.0" encoding="UTF-8" standalone="no"?>
<!DOCTYPE svg PUBLIC "-//W3C//DTD SVG 1.1//EN" "http://www.w3.org/Graphics/SVG/1.1/DTD/svg11.dtd">
<svg width="100%" height="100%" viewBox="0 0 135 135" version="1.1" xmlns="http://www.w3.org/2000/svg" xmlns:xlink="http://www.w3.org/1999/xlink" xml:space="preserve" xmlns:serif="http://www.serif.com/" style="fill-rule:evenodd;clip-rule:evenodd;stroke-linejoin:round;stroke-miterlimit:2;">
    <g transform="matrix(1,0,0,1,-756.665,-404.964)">
        <path d="M891.665,472.464C891.665,509.743 861.444,539.964 824.165,539.964C786.886,539.964 756.665,509.743 756.665,472.464C756.665,435.185 786.886,404.964 824.165,404.964C861.444,404.964 891.665,435.185 891.665,472.464Z" style="fill:rgb(118,146,147);fill-rule:nonzero;"/>
        <path d="M829.388,463.255C830.496,462.01 831.41,460.745 832.549,459.672C836.049,456.373 840.19,454.708 845.024,454.749C847.681,454.771 850.308,454.963 852.869,455.704C858.728,457.398 862.133,461.431 863.756,467.154C864.974,471.446 865.198,475.853 865.206,480.273C865.222,489.598 865.179,498.922 865.199,508.247C865.201,509.12 864.957,509.349 864.097,509.341C859.294,509.302 854.489,509.301 849.686,509.343C848.841,509.35 848.658,509.088 848.661,508.29C848.688,499.417 848.694,490.545 848.666,481.672C848.658,479.449 848.517,477.227 847.893,475.065C846.744,471.083 843.894,469.054 839.722,469.274C834.025,469.575 831.063,472.396 830.337,478.188C830.163,479.572 830.081,480.956 830.082,482.35C830.09,490.979 830.073,499.608 830.105,508.236C830.108,509.097 829.893,509.351 829.014,509.343C824.176,509.3 819.336,509.305 814.498,509.339C813.723,509.345 813.498,509.136 813.499,508.351C813.521,491.268 813.521,474.184 813.498,457.1C813.497,456.255 813.774,456.059 814.573,456.065C819.168,456.099 823.764,456.103 828.358,456.062C829.204,456.055 829.422,456.328 829.403,457.129C829.356,459.17 829.388,461.213 829.388,463.255Z" style="fill:rgb(239,234,228);fill-rule:nonzero;"/>
        <path d="M803.068,482.779C803.068,491.23 803.054,499.682 803.088,508.134C803.092,509.073 802.858,509.357 801.886,509.346C797.085,509.293 792.282,509.306 787.48,509.339C786.711,509.345 786.479,509.152 786.48,508.357C786.503,491.245 786.501,474.133 786.484,457.021C786.483,456.313 786.655,456.061 787.407,456.065C792.278,456.097 797.15,456.106 802.021,456.06C802.957,456.05 803.085,456.414 803.083,457.216C803.06,465.737 803.068,474.258 803.068,482.779Z" style="fill:rgb(239,234,228);fill-rule:nonzero;"/>
        <path d="M804.393,439.108C804.397,444.414 800.09,448.737 794.797,448.739C789.57,448.741 785.227,444.414 785.21,439.19C785.192,433.909 789.533,429.56 794.816,429.565C800.063,429.57 804.387,433.879 804.393,439.108Z" style="fill:rgb(239,234,228);fill-rule:nonzero;"/>
    </g>
</svg>
